<svg width="36" height="36" viewBox="0 0 36 36" fill="none" xmlns="http://www.w3.org/2000/svg">
<path d="M18.7891 23.707C18.7891 23.8779 18.7256 24.022 18.5986 24.1392C18.4717 24.2563 18.3228 24.3149 18.1519 24.3149C17.9761 24.3149 17.8247 24.2563 17.6978 24.1392C17.5757 24.022 17.5146 23.8779 17.5146 23.707V21.4585L17.5659 20.3232L17.002 20.9092L16.4453 21.4805C16.3867 21.5439 16.3184 21.5928 16.2402 21.627C16.1621 21.6611 16.0864 21.6782 16.0132 21.6782C15.8472 21.6782 15.708 21.627 15.5957 21.5244C15.4883 21.417 15.4346 21.2827 15.4346 21.1216C15.4346 21.0288 15.4517 20.9482 15.4858 20.8799C15.52 20.8066 15.5713 20.7383 15.6396 20.6748L17.6611 18.8291C17.749 18.7461 17.8296 18.6875 17.9028 18.6533C17.9761 18.6191 18.0591 18.6021 18.1519 18.6021C18.2397 18.6021 18.3203 18.6191 18.3936 18.6533C18.4717 18.6875 18.5522 18.7461 18.6353 18.8291L20.6567 20.6748C20.7251 20.7383 20.7764 20.8066 20.8105 20.8799C20.8447 20.9482 20.8618 21.0288 20.8618 21.1216C20.8618 21.2827 20.8057 21.417 20.6934 21.5244C20.5859 21.627 20.4517 21.6782 20.2905 21.6782C20.2075 21.6782 20.127 21.6611 20.0488 21.627C19.9756 21.5928 19.9097 21.5439 19.8511 21.4805L19.2944 20.9092L18.7305 20.3232L18.7891 21.4585V23.707ZM14.248 26.644C13.4619 26.644 12.8687 26.4414 12.4683 26.0361C12.0679 25.6309 11.8677 25.0327 11.8677 24.2417V13.1895C11.8677 12.4033 12.0679 11.8076 12.4683 11.4023C12.8687 10.9922 13.4619 10.7871 14.248 10.7871H17.7783C18.0859 10.7871 18.3545 10.8091 18.584 10.853C18.8135 10.8921 19.0259 10.9678 19.2212 11.0801C19.4165 11.1875 19.6167 11.3462 19.8218 11.5562L23.6597 15.46C23.8745 15.6748 24.0356 15.8823 24.1431 16.0825C24.2554 16.2778 24.3311 16.4951 24.3701 16.7344C24.4092 16.9688 24.4287 17.2568 24.4287 17.5986V24.2417C24.4287 25.0278 24.2285 25.6235 23.8281 26.0288C23.4277 26.439 22.8345 26.644 22.0483 26.644H14.248ZM14.3652 25.2012H21.9312C22.2876 25.2012 22.5537 25.1108 22.7295 24.9302C22.9053 24.7495 22.9932 24.4907 22.9932 24.1538V17.7964H19.0454C18.5229 17.7964 18.1323 17.667 17.8735 17.4082C17.6196 17.1494 17.4927 16.7588 17.4927 16.2363V12.2227H14.3726C14.0161 12.2227 13.75 12.3154 13.5742 12.501C13.3984 12.6865 13.3105 12.9478 13.3105 13.2847V24.1538C13.3105 24.4907 13.3984 24.7495 13.5742 24.9302C13.75 25.1108 14.0137 25.2012 14.3652 25.2012ZM19.1846 16.5293H22.7954L18.7598 12.4204V16.0972C18.7598 16.2485 18.7915 16.3584 18.855 16.4268C18.9233 16.4951 19.0332 16.5293 19.1846 16.5293Z" fill="black"/>
</svg>
