<svg width="36" height="36" viewBox="0 0 36 36" fill="none" xmlns="http://www.w3.org/2000/svg">
<path d="M10.4819 29.2339C9.30192 29.2339 8.41488 28.9409 7.8208 28.355C7.23486 27.769 6.94189 26.8983 6.94189 25.7427V11.6191C6.94189 10.4554 7.23486 9.58464 7.8208 9.00684C8.41488 8.4209 9.30192 8.12793 10.4819 8.12793H24.52C25.7 8.12793 26.583 8.4209 27.1689 9.00684C27.7549 9.59277 28.0479 10.4635 28.0479 11.6191V25.7427C28.0479 26.8983 27.7549 27.769 27.1689 28.355C26.583 28.9409 25.7 29.2339 24.52 29.2339H10.4819ZM10.5063 27.5371H24.4956C25.0897 27.5371 25.5495 27.3784 25.875 27.061C26.2005 26.7437 26.3633 26.2716 26.3633 25.645V11.7046C26.3633 11.078 26.2005 10.606 25.875 10.2886C25.5495 9.96305 25.0897 9.80029 24.4956 9.80029H10.5063C9.90413 9.80029 9.44027 9.96305 9.11475 10.2886C8.79736 10.606 8.63867 11.078 8.63867 11.7046V25.645C8.63867 26.2716 8.79736 26.7437 9.11475 27.061C9.44027 27.3784 9.90413 27.5371 10.5063 27.5371ZM14.0952 23.936C13.8674 23.936 13.6802 23.8669 13.5337 23.7285C13.3872 23.582 13.314 23.4111 13.314 23.2158C13.314 23.0205 13.3791 22.8374 13.5093 22.6665L16.4756 18.5161L13.6558 14.5854C13.5011 14.3901 13.4238 14.1948 13.4238 13.9995C13.4238 13.7798 13.5052 13.5967 13.668 13.4502C13.8307 13.2956 14.022 13.2183 14.2417 13.2183C14.4207 13.2183 14.5672 13.2508 14.6812 13.3159C14.8032 13.381 14.9253 13.499 15.0474 13.6699L17.5742 17.3687H17.6353L20.1133 13.6821C20.2272 13.5112 20.3411 13.3932 20.4551 13.3281C20.569 13.2549 20.7074 13.2183 20.8701 13.2183C21.098 13.2183 21.2892 13.2874 21.4438 13.4258C21.5985 13.5641 21.6758 13.7391 21.6758 13.9507C21.6758 14.1379 21.6066 14.321 21.4683 14.5L18.5142 18.5771L21.4438 22.6177C21.5741 22.7967 21.6392 22.9839 21.6392 23.1792C21.6392 23.3989 21.5618 23.582 21.4072 23.7285C21.2526 23.8669 21.0573 23.936 20.8213 23.936C20.6423 23.936 20.4958 23.8994 20.3818 23.8262C20.276 23.7529 20.158 23.6268 20.0278 23.4478L17.4766 19.7734H17.4277L14.8765 23.4478C14.7463 23.6268 14.6242 23.7529 14.5103 23.8262C14.4045 23.8994 14.2661 23.936 14.0952 23.936Z" fill="black"/>
</svg>
