<svg width="36" height="36" viewBox="0 0 36 36" fill="none" xmlns="http://www.w3.org/2000/svg">
<path d="M12.1826 18.0674V16.6172C12.1826 16.4268 12.251 16.2656 12.3877 16.1338C12.5244 16.002 12.6855 15.936 12.8711 15.936C13.0664 15.936 13.2324 16.002 13.3691 16.1338C13.5059 16.2656 13.5742 16.4268 13.5742 16.6172V18.0161C13.5742 18.8462 13.7476 19.5737 14.0942 20.1987C14.4458 20.8188 14.9365 21.2998 15.5664 21.6416C16.1963 21.9834 16.9263 22.1543 17.7563 22.1543C18.5913 22.1543 19.3213 21.9834 19.9463 21.6416C20.5713 21.2998 21.0596 20.8188 21.4111 20.1987C21.7627 19.5737 21.9385 18.8462 21.9385 18.0161V16.6172C21.9385 16.4268 22.0068 16.2656 22.1436 16.1338C22.2803 16.002 22.4438 15.936 22.6343 15.936C22.8247 15.936 22.9858 16.002 23.1177 16.1338C23.2544 16.2656 23.3228 16.4268 23.3228 16.6172V18.0674C23.3228 19.0732 23.1152 19.9619 22.7002 20.7334C22.2852 21.5049 21.709 22.1226 20.9717 22.5864C20.2393 23.0503 19.3921 23.3286 18.4302 23.4214V24.9229H21.1182C21.3086 24.9229 21.4722 24.9888 21.6089 25.1206C21.7456 25.2573 21.814 25.4209 21.814 25.6113C21.814 25.7969 21.7456 25.9556 21.6089 26.0874C21.4722 26.2241 21.3086 26.2925 21.1182 26.2925H14.3945C14.2041 26.2925 14.0405 26.2241 13.9038 26.0874C13.7671 25.9556 13.6987 25.7969 13.6987 25.6113C13.6987 25.4209 13.7671 25.2573 13.9038 25.1206C14.0405 24.9888 14.2041 24.9229 14.3945 24.9229H17.0825V23.4214C16.1206 23.3286 15.271 23.0503 14.5337 22.5864C13.7964 22.1226 13.2202 21.5049 12.8052 20.7334C12.3901 19.9619 12.1826 19.0732 12.1826 18.0674ZM14.9512 17.7451V13.1748C14.9512 12.5889 15.0708 12.0713 15.3101 11.6221C15.5493 11.1729 15.8789 10.8213 16.2988 10.5674C16.7236 10.3086 17.2095 10.1792 17.7563 10.1792C18.3032 10.1792 18.7866 10.3086 19.2065 10.5674C19.6313 10.8213 19.9609 11.1729 20.1953 11.6221C20.4346 12.0713 20.5542 12.5889 20.5542 13.1748V17.7451C20.5542 18.3311 20.4346 18.8486 20.1953 19.2979C19.9609 19.7471 19.6313 20.1011 19.2065 20.3599C18.7866 20.6138 18.3032 20.7407 17.7563 20.7407C17.2095 20.7407 16.7236 20.6138 16.2988 20.3599C15.8789 20.1011 15.5493 19.7471 15.3101 19.2979C15.0708 18.8486 14.9512 18.3311 14.9512 17.7451ZM16.3428 17.7671C16.3428 18.2554 16.4697 18.6509 16.7236 18.9536C16.9824 19.2515 17.3267 19.4004 17.7563 19.4004C18.1909 19.4004 18.5327 19.2515 18.7817 18.9536C19.0356 18.6509 19.1626 18.2554 19.1626 17.7671V13.1528C19.1626 12.6646 19.0356 12.2715 18.7817 11.9736C18.5327 11.6709 18.1909 11.5195 17.7563 11.5195C17.3267 11.5195 16.9824 11.6709 16.7236 11.9736C16.4697 12.2715 16.3428 12.6646 16.3428 13.1528V17.7671Z" fill="black"/>
</svg>
